# xmcd
#
# Track frame offsets: 
#        150
#        16357
#        34990
#        55140
#
# Disc length: 1031 seconds
#
# Revision: 0
# Processed by: cddbd v1.5PL3 Copyright (c) Steve Scherf et al.
# Submitted via: ExactAudioCopy v0.95a4
#
DISCID=2c040504
DTITLE=Plaid - Peel Session [NTH-97053]
DYEAR=1999
DGENRE=Electronic
TTITLE0=Scoobs
TTITLE1=Eph
TTITLE2=Bo Bootch
TTITLE3=Cold
EXTD=
EXTT0=
EXTT1=
EXTT2=
EXTT3=
PLAYORDER=
